<svg xmlns="http://www.w3.org/2000/svg" fill-rule="evenodd" stroke-linejoin="round" stroke-miterlimit="2" clip-rule="evenodd" viewBox="0 0 5452 5240">
  <path fill="none" d="M0 0h5451.69v5239.68H0z"/>
  <path fill="#ffefb6" d="M5451.69 785.952C5451.69 352.173 5099.516 0 4665.738 0H785.948C352.169 0-.004 352.173-.004 785.952v3667.78c0 433.779 352.173 785.953 785.952 785.953h3879.79c433.778 0 785.952-352.174 785.952-785.953V785.952z"/>
  <path fill="#977304" d="M1852.21 2385.78c105.549-394.272 465.527-670.558 873.682-670.558 239.771 0 469.968 95.346 639.518 264.884l229.488 229.488h-383.847c-49.617 0-90.445 40.828-90.445 90.445 0 49.616 40.828 90.444 90.445 90.444h601.999c49.617 0 90.445-40.828 90.445-90.444v-602c0-49.616-40.828-90.444-90.445-90.444-49.616 0-90.444 40.828-90.444 90.444v383.485l-229.127-229.126c-203.476-203.57-479.8-318.065-767.625-318.065-489.736 0-921.678 331.475-1048.38 804.537a90.497 90.497 0 0 0-3.076 23.395c0 49.65 40.856 90.505 90.506 90.505 40.847 0 76.871-27.652 87.43-67.11l-.121.12zm1858.1 404.228a90.408 90.408 0 0 0-23.468-3.098c-40.799 0-76.786 27.606-87.357 67.012-105.548 394.272-465.526 670.558-873.681 670.558-239.771 0-469.968-95.346-639.518-264.884l-229.368-229.488h383.848c49.616 0 90.444-40.828 90.444-90.445 0-49.616-40.828-90.444-90.444-90.444h-602.121c-49.616 0-90.444 40.828-90.444 90.444v602c0 49.616 40.828 90.445 90.444 90.445 49.617 0 90.445-40.829 90.445-90.445v-383.485l229.127 229.126c203.474 203.555 479.787 318.039 767.6 318.039 489.772 0 921.736-331.524 1048.41-804.631 12.802-47.893-16.036-97.844-63.914-110.704z"/>
</svg>
