<?xml version="1.0" encoding="UTF-8" standalone="no"?><!DOCTYPE svg PUBLIC "-//W3C//DTD SVG 1.1//EN" "http://www.w3.org/Graphics/SVG/1.1/DTD/svg11.dtd"><svg width="100%" height="100%" viewBox="0 0 22717 21834" version="1.1" xmlns="http://www.w3.org/2000/svg" xmlns:xlink="http://www.w3.org/1999/xlink" xml:space="preserve" xmlns:serif="http://www.serif.com/" style="fill-rule:evenodd;clip-rule:evenodd;stroke-linejoin:round;stroke-miterlimit:2;"><rect x="0" y="0" width="22715.4" height="21832" style="fill:none;"/><path d="M22715.4,3274.8c0,-1807.41 -1467.39,-3274.8 -3274.8,-3274.8l-16165.8,0c-1807.41,0 -3274.8,1467.39 -3274.8,3274.8l0,15282.4c0,1807.41 1467.39,3274.8 3274.8,3274.8l16165.8,-0c1807.41,-0 3274.8,-1467.39 3274.8,-3274.8l0,-15282.4Z" style="fill:#ffefb6;"/><path d="M6538.81,7012.66c-0,-512.425 415.479,-927.409 927.408,-927.409l2596.74,0c512.424,0 927.408,415.479 927.408,927.409l0,6491.86c0,1221.03 -1004.75,2225.78 -2225.78,2225.78c-1221.03,0 -2225.78,-1004.75 -2225.78,-2225.78l-0,-6491.86Zm2225.78,7048.3c305.257,-0 556.445,-251.188 556.445,-556.445c0,-305.257 -251.188,-556.445 -556.445,-556.445c-305.257,-0 -556.445,251.188 -556.445,556.445c0,305.257 251.188,556.445 556.445,556.445Z" style="fill:#977405;"/><path d="M10727.7,15730.3l4528.72,0c512.424,0 927.409,-415.479 927.409,-927.408l-0,-2596.74c-0,-512.424 -415.479,-927.409 -927.409,-927.409l-69.246,0l-4323.95,4324.44c-44.516,44.021 -89.032,86.558 -135.526,127.117Zm998.634,-2040.3l3202.16,-3202.16c359.538,-359.716 359.538,-951.517 -0,-1311.23l-1836.02,-1836.52c-359.715,-359.539 -951.516,-359.539 -1311.23,-0l-49.461,48.967l-0,6115.45c-0,62.322 -1.484,124.149 -4.947,185.481l-0.494,0Z" style="fill:#977405;fill-rule:nonzero;"/></svg>