<?xml version="1.0" standalone="no"?>
<!DOCTYPE svg PUBLIC "-//W3C//DTD SVG 20010904//EN"
 "http://www.w3.org/TR/2001/REC-SVG-20010904/DTD/svg10.dtd">
<svg version="1.0" xmlns="http://www.w3.org/2000/svg"
 width="733.000000pt" height="205.000000pt" viewBox="0 0 733.000000 205.000000"
 preserveAspectRatio="xMidYMid meet">

<g transform="translate(0.000000,205.000000) scale(0.100000,-0.100000)"
fill="#000000" stroke="none">
<path d="M870 2031 c0 -11 -9 -23 -20 -26 -11 -4 -20 -15 -20 -27 0 -15 5 -19
20 -15 17 4 20 0 20 -24 0 -22 5 -29 20 -29 14 0 20 7 20 24 0 17 7 26 23 30
30 7 30 35 0 42 -14 4 -23 14 -23 25 0 12 -7 19 -20 19 -13 0 -20 -7 -20 -19z"/>
<path d="M831 1874 c-12 -15 -21 -40 -21 -56 0 -35 39 -77 72 -79 17 -1 18 -3
6 -6 -13 -3 -18 -15 -18 -39 0 -25 4 -34 18 -35 13 0 12 -3 -6 -12 -19 -9 -23
-16 -18 -39 6 -29 -2 -36 -21 -17 -17 17 -33 1 -33 -32 0 -22 5 -29 19 -29 11
0 23 5 26 10 3 6 10 10 15 10 6 0 2 -16 -7 -35 -16 -34 -18 -35 -74 -35 -48 0
-60 4 -73 22 -20 28 -22 58 -4 40 16 -16 45 -15 51 1 12 37 -24 62 -51 35 -7
-7 -12 -8 -12 -2 0 5 5 15 10 20 16 16 1 44 -24 45 -15 0 -17 2 -6 7 10 5 15
21 15 47 0 39 1 40 38 43 21 2 58 -1 83 -6 43 -9 61 -1 27 13 -29 11 -139 18
-167 11 -26 -6 -27 -8 -25 -79 1 -40 7 -78 12 -85 13 -17 0 -29 -15 -14 -17
17 -35 15 -40 -5 -10 -39 22 -59 50 -31 16 16 15 3 -3 -32 -15 -28 -19 -30
-75 -30 -50 0 -61 4 -74 22 -25 35 -21 52 7 33 28 -18 37 -12 37 27 0 30 -25
39 -48 16 -8 -8 -11 -4 -9 18 2 25 -2 29 -26 32 -25 3 -27 1 -22 -21 21 -83
41 -187 36 -188 -9 -1 -103 -1 -138 0 l-31 1 18 47 18 48 -30 85 c-17 47 -33
90 -37 97 -3 7 -22 -32 -41 -86 -33 -97 -33 -98 -17 -139 9 -24 17 -44 17 -46
0 -2 -25 -6 -56 -9 -77 -8 -129 -43 -160 -110 -28 -60 -31 -122 -8 -175 26
-64 95 -122 144 -122 20 0 20 -4 20 -368 l0 -367 33 0 32 0 3 -72 3 -73 34 0
c44 0 75 -38 75 -91 l0 -39 530 0 530 0 0 39 c0 57 31 91 82 91 l40 0 -4 73
-3 72 30 0 30 1 5 363 5 363 36 12 c90 31 139 100 139 197 0 111 -74 195 -182
206 l-55 6 15 47 c15 47 14 50 -18 144 -19 56 -36 91 -40 84 -4 -7 -20 -50
-36 -95 -28 -81 -28 -83 -12 -132 l16 -51 -36 -1 c-132 -5 -132 -6 -132 16 0
17 7 51 35 173 5 21 2 23 -22 20 -24 -3 -28 -7 -26 -32 2 -22 -1 -26 -9 -18
-7 7 -20 12 -30 12 -13 0 -18 -8 -18 -30 0 -22 5 -30 18 -30 10 0 23 5 30 12
18 18 16 -12 -4 -40 -13 -18 -24 -22 -74 -22 -56 0 -60 2 -75 30 -20 40 -19
43 10 24 24 -16 25 -15 34 7 15 41 -9 65 -37 37 -16 -16 -28 -2 -12 17 18 21
5 45 -25 45 -28 0 -44 -25 -26 -43 6 -6 11 -15 11 -21 0 -6 -5 -5 -12 2 -7 7
-20 12 -30 12 -13 0 -18 -8 -18 -30 0 -22 5 -30 18 -30 10 0 23 5 30 12 16 16
15 3 -3 -32 -14 -28 -19 -30 -73 -30 -53 0 -58 2 -75 31 -20 37 -15 49 11 26
24 -22 44 -7 40 29 -3 30 -14 34 -53 18 -16 -6 -18 -5 -9 7 6 8 10 42 8 78 -2
60 -1 66 27 92 58 54 26 139 -53 139 -28 0 -42 -7 -57 -26z m-566 -352 c-3 -3
-10 -1 -16 5 -7 7 -7 23 3 54 l13 44 3 -49 c2 -26 1 -51 -3 -54z m1224 7 c-24
-15 -28 1 -11 49 l17 47 3 -44 c2 -28 -1 -47 -9 -52z m53 14 c2 -9 -5 -17 -14
-18 -15 -3 -18 5 -18 48 l1 52 14 -33 c8 -18 16 -40 17 -49z m-1237 31 c16
-38 13 -56 -8 -48 -12 4 -24 84 -13 84 3 0 13 -16 21 -36z m-35 -109 c0 -25
-2 -45 -4 -45 -2 0 -11 20 -19 45 -15 43 -15 45 4 45 16 0 19 -7 19 -45z m49
38 c-2 -24 -28 -76 -29 -60 -2 19 -3 54 -1 62 2 8 31 6 30 -2z m1181 -40 c-1
-46 -1 -47 -14 -23 -27 51 -29 70 -7 70 18 0 21 -6 21 -47z m33 2 c-8 -25 -17
-45 -19 -45 -2 0 -4 20 -4 45 0 38 3 45 19 45 19 0 19 -2 4 -45z m-1358 -194
c-10 -9 -45 39 -45 62 0 11 10 32 23 45 l22 24 3 -62 c2 -34 0 -65 -3 -69z
m185 114 c0 -12 -16 -15 -80 -15 -64 0 -80 3 -80 15 0 12 16 15 80 15 64 0 80
-3 80 -15z m1036 -107 c-8 -160 -32 -353 -57 -451 -32 -131 -101 -258 -214
-390 -67 -80 -213 -207 -236 -207 -25 0 -161 121 -238 211 -80 95 -156 218
-189 308 -37 105 -65 290 -78 524 l-7 127 513 0 513 0 -7 -122z m187 107 c-2
-5 -39 -11 -83 -13 -67 -2 -80 0 -80 13 0 13 13 15 83 13 48 -2 81 -7 80 -13z
m57 -16 c15 -27 12 -60 -7 -81 -27 -30 -33 -21 -33 47 0 54 3 63 15 59 9 -4
20 -15 25 -25z m-1518 -29 c-4 -34 0 -44 27 -69 42 -40 42 -83 0 -118 -28 -24
-31 -31 -26 -70 2 -24 2 -43 -2 -43 -13 0 -77 75 -89 103 -16 38 -15 100 3
143 14 33 68 94 84 94 4 0 5 -18 3 -40z m1572 19 c90 -71 85 -240 -9 -299
l-30 -19 3 43 c3 38 0 46 -27 69 -41 34 -43 87 -6 111 33 22 47 59 35 91 -12
30 -1 32 34 4z m-1336 -23 c3 -14 -8 -16 -77 -16 -63 0 -81 3 -81 14 0 19 9
21 87 20 54 -2 69 -5 71 -18z m1220 11 c29 -19 7 -27 -73 -27 -64 0 -85 3 -85
13 0 8 2 16 4 18 8 8 141 4 154 -4z m-1238 -50 c0 -12 -53 -87 -62 -87 -6 0
-68 83 -68 92 0 2 29 4 65 3 36 0 65 -4 65 -8z m1230 2 c0 -9 -61 -89 -68 -89
-9 0 -62 83 -57 90 5 7 125 7 125 -1z m-1253 -181 c25 -36 44 -71 41 -78 -5
-15 -158 205 -158 227 0 18 22 -10 117 -149z m17 103 c-15 -23 -31 -41 -35
-41 -14 0 -11 9 23 58 39 56 50 40 12 -17z m1240 20 c-28 -47 -54 -77 -54 -62
0 20 53 101 62 95 5 -3 1 -18 -8 -33z m-71 -63 c72 -105 91 -138 80 -138 -9 0
-130 166 -152 208 -7 12 -8 22 -2 22 5 0 38 -42 74 -92z m-1275 -50 c-11 -16
-21 -28 -24 -28 -2 0 -4 28 -4 62 l0 62 24 -34 24 -35 -20 -27z m130 -5 l-3
-38 -23 37 -24 38 24 32 23 33 3 -32 c2 -18 2 -50 0 -70z m1112 34 c0 -7 -11
-25 -25 -42 l-24 -30 0 70 0 70 24 -28 c14 -15 25 -33 25 -40z m116 3 c0 -33
-3 -60 -7 -60 -4 0 -15 12 -24 27 -17 25 -17 28 0 60 10 18 21 33 25 33 4 0 7
-27 6 -60z m-144 -882 c29 -3 32 -6 31 -33 -2 -67 -3 -71 -32 -82 -33 -12 -58
-46 -63 -85 l-4 -28 -478 -1 c-263 0 -481 2 -484 6 -3 3 -7 15 -9 27 -6 36
-32 69 -69 84 -32 14 -34 16 -30 57 3 23 5 45 5 50 1 4 15 7 31 7 l30 0 1 428
1 427 18 -115 c10 -63 19 -126 21 -140 3 -16 0 -24 -8 -23 -7 2 -14 -4 -14
-12 -1 -8 -2 -23 -3 -32 -1 -12 7 -19 22 -21 14 -2 22 -10 22 -23 0 -10 5 -19
10 -19 16 0 12 -27 -5 -34 -30 -11 -5 -69 27 -64 15 2 28 -8 44 -34 23 -36 23
-38 5 -38 -13 0 -21 8 -23 23 -3 20 -10 23 -48 18 -5 0 -10 -10 -10 -21 0 -14
-7 -20 -24 -20 -22 0 -25 -7 -17 -52 0 -5 10 -8 20 -8 12 0 21 -8 23 -22 2
-16 10 -22 31 -23 22 0 27 4 27 22 0 18 6 23 26 23 14 0 23 4 19 9 -3 5 -1 12
4 15 5 4 20 -8 32 -26 16 -21 19 -33 11 -36 -7 -2 -12 -12 -12 -23 0 -12 -7
-19 -20 -19 -16 0 -20 -7 -20 -30 0 -23 4 -30 20 -30 13 0 20 -7 20 -20 0 -11
4 -20 9 -20 5 0 16 -3 25 -6 10 -4 19 3 27 20 8 16 20 26 34 26 46 0 71 -72
28 -78 -18 -3 -23 -10 -23 -33 0 -24 4 -29 25 -29 18 0 25 -5 25 -19 0 -19 25
-31 48 -24 6 3 12 13 12 23 0 26 43 31 77 9 15 -11 22 -19 16 -19 -7 0 -13
-11 -13 -24 0 -18 -6 -25 -22 -28 -17 -2 -23 -10 -23 -28 0 -18 6 -26 23 -28
14 -2 22 -10 22 -23 0 -14 7 -19 30 -19 23 0 30 5 30 19 0 13 8 21 22 23 16 2
22 10 23 30 2 23 -2 28 -22 28 -18 0 -23 5 -23 25 0 14 -6 25 -12 25 -7 0 0 8
15 19 33 22 77 17 77 -9 0 -10 8 -20 19 -23 23 -6 51 10 51 28 0 8 9 15 20 15
16 0 20 7 20 30 0 23 -5 30 -19 30 -25 0 -32 21 -17 51 14 29 73 36 68 8 -1
-9 4 -19 12 -22 26 -10 51 0 54 21 2 14 11 22 23 22 14 0 19 7 19 30 0 23 -4
30 -20 30 -13 0 -20 7 -20 18 0 10 -4 22 -9 28 -6 5 0 23 15 44 13 19 25 31
25 27 1 -4 2 -13 3 -19 0 -7 11 -14 23 -16 13 -2 23 -11 25 -25 4 -31 52 -30
56 1 2 16 10 22 28 22 20 0 24 5 24 30 0 25 -4 30 -25 30 -18 0 -25 5 -25 19
0 11 -9 21 -22 24 -27 8 -38 1 -38 -24 0 -12 -7 -19 -20 -19 -19 0 -19 0 1 34
13 22 30 36 49 40 25 5 30 10 30 36 0 16 -4 30 -10 30 -5 0 -10 7 -10 15 0 8
5 15 10 15 6 0 10 9 10 19 0 13 8 21 23 23 30 4 37 53 9 62 -19 6 -19 10 -7
74 7 37 17 110 22 162 6 69 9 -28 11 -357 l2 -452 32 -3z m-1262 812 c0 -64
-9 -74 -34 -38 -20 28 -20 48 0 76 25 36 34 26 34 -38z m1460 27 c13 -24 13
-30 0 -54 -27 -49 -40 -40 -40 27 0 67 13 76 40 27z m-1402 -33 c-18 -25 -34
-41 -36 -35 -5 14 49 92 59 85 5 -3 -5 -26 -23 -50z m1221 -9 c-35 -49 -39
-52 -39 -32 0 19 63 102 68 89 2 -6 -11 -32 -29 -57z m-1118 -52 c11 -20 8
-30 -25 -78 l-37 -56 -18 23 c-9 13 -27 37 -40 55 l-22 32 38 56 37 57 28 -34
c15 -18 32 -43 39 -55z m1204 33 l37 -54 -38 -56 c-20 -31 -38 -56 -39 -56 -1
0 -20 25 -40 55 l-38 55 37 55 c20 30 38 55 40 55 2 0 20 -24 41 -54z m-1185
-323 c0 -7 -2 -13 -4 -13 -11 0 -156 221 -156 237 0 9 36 -34 80 -97 44 -63
80 -120 80 -127z m-31 170 c-18 -26 -34 -42 -37 -35 -2 6 11 33 29 59 18 26
34 42 37 35 2 -6 -11 -33 -29 -59z m1172 -35 c69 -98 103 -165 66 -128 -22 22
-147 209 -147 220 0 20 10 8 81 -92z m52 32 c-36 -56 -43 -32 -6 25 16 26 29
39 31 31 2 -8 -9 -33 -25 -56z m-1326 -85 c-11 -16 -22 -32 -24 -34 -2 -2 -3
27 -3 65 l0 68 24 -34 24 -35 -21 -30z m133 28 l0 -68 -25 30 c-13 17 -24 34
-25 38 0 8 41 67 47 67 2 0 3 -30 3 -67z m1110 2 c0 -5 -11 -23 -25 -40 l-24
-30 0 70 0 70 24 -30 c14 -16 25 -34 25 -40z m108 -27 l-3 -32 -19 28 c-18 29
-18 30 0 65 l19 35 3 -32 c2 -18 2 -47 0 -64z m-1155 8 c6 -15 -1 -26 -15 -26
-4 0 -8 9 -8 20 0 23 15 27 23 6z m957 0 c0 -17 -14 -29 -23 -20 -8 8 3 34 14
34 5 0 9 -6 9 -14z m-1143 -56 c-17 -27 -33 -43 -35 -35 -4 18 48 96 59 89 5
-3 -6 -27 -24 -54z m1222 -7 c-18 -26 -34 -42 -37 -35 -2 6 11 33 29 59 18 26
34 42 37 35 2 -6 -11 -33 -29 -59z m-1143 -18 l37 -55 -34 -50 c-19 -27 -37
-50 -41 -50 -3 0 -22 23 -42 50 l-36 51 37 54 c21 30 39 54 40 55 2 0 19 -25
39 -55z m1228 -1 l37 -55 -36 -50 c-20 -27 -41 -47 -46 -44 -5 4 -23 26 -40
51 l-31 45 38 55 c20 29 38 54 39 54 1 0 19 -25 39 -56z m-1074 -54 c9 -17 8
-20 -10 -20 -13 0 -20 7 -20 20 0 11 4 20 10 20 5 0 14 -9 20 -20z m870 -5 c0
-8 -9 -15 -20 -15 -13 0 -18 5 -14 15 4 8 12 15 20 15 8 0 14 -7 14 -15z
m-1056 -139 c42 -59 76 -115 74 -123 -4 -18 -158 200 -158 223 0 10 2 15 4 13
2 -2 38 -53 80 -113z m50 55 c-15 -23 -31 -41 -35 -41 -14 0 -11 9 23 58 39
56 50 40 12 -17z m1217 -13 c-38 -52 -41 -31 -3 29 17 27 28 38 30 28 2 -8
-10 -34 -27 -57z m-41 -39 c39 -56 70 -108 68 -116 -3 -14 -137 169 -146 200
-9 33 7 16 78 -84z m-1030 41 c0 -13 7 -20 20 -20 13 0 20 -7 20 -20 0 -13 -7
-20 -20 -20 -13 0 -20 -7 -20 -20 0 -13 -7 -20 -20 -20 -13 0 -20 7 -20 20 0
13 -7 20 -20 20 -13 0 -20 7 -20 20 0 13 7 20 20 20 13 0 20 7 20 20 0 13 7
20 20 20 13 0 20 -7 20 -20z m860 0 c0 -13 7 -20 20 -20 13 0 20 -7 20 -20 0
-13 -7 -20 -20 -20 -13 0 -20 -7 -20 -20 0 -13 -7 -20 -19 -20 -12 0 -18 7
-17 17 0 12 -7 19 -21 21 -30 4 -32 42 -2 42 12 0 23 8 26 20 3 11 12 20 19
20 8 0 14 -9 14 -20z m-1100 -52 c0 -7 -9 -24 -20 -38 l-20 -25 0 64 0 64 20
-26 c11 -14 20 -31 20 -39z m120 2 c0 -33 -4 -60 -8 -60 -4 0 -16 14 -25 30
-18 29 -18 31 3 60 12 17 23 30 26 30 2 0 4 -27 4 -60z m1090 30 l22 -30 -22
-35 c-12 -19 -24 -35 -26 -35 -2 0 -4 29 -4 65 0 36 2 65 4 65 3 0 14 -14 26
-30z m130 -31 l0 -62 -22 28 c-21 27 -21 28 -3 61 10 19 20 34 22 34 1 0 3
-28 3 -61z m-1342 -75 c-18 -25 -34 -40 -36 -34 -5 15 48 91 59 84 5 -3 -5
-26 -23 -50z m1226 -1 c-41 -56 -44 -59 -44 -42 0 22 63 106 67 92 3 -7 -8
-29 -23 -50z m-1144 -29 l31 -44 -71 0 c-38 0 -70 2 -70 5 0 13 64 93 72 89 4
-3 22 -25 38 -50z m1220 12 c16 -25 30 -47 30 -50 0 -3 -29 -6 -65 -6 -36 0
-65 3 -65 6 0 7 60 94 65 94 2 0 18 -20 35 -44z m-923 7 c4 -10 15 -24 25 -31
24 -17 23 -32 -2 -32 -13 0 -20 -7 -20 -20 0 -13 -7 -20 -19 -20 -14 0 -19 6
-16 20 3 16 -2 20 -21 20 -17 0 -24 5 -24 20 0 15 7 20 25 20 18 0 25 5 25 20
0 25 18 26 27 3z m578 -3 c-3 -16 2 -20 21 -20 17 0 24 -5 24 -20 0 -14 -7
-20 -21 -20 -12 0 -23 -8 -26 -20 -3 -11 -12 -20 -19 -20 -8 0 -14 9 -14 20 0
13 -7 20 -20 20 -25 0 -26 15 -2 32 10 7 21 21 25 31 9 24 37 22 32 -3z m-835
-90 c0 -18 -7 -20 -80 -20 -73 0 -80 2 -80 20 0 18 7 20 80 20 73 0 80 -2 80
-20z m1220 0 c0 -18 -7 -20 -80 -20 -73 0 -80 2 -80 20 0 18 7 20 80 20 73 0
80 -2 80 -20z m-1220 -45 c0 -8 -3 -15 -7 -15 -116 -7 -153 -4 -153 13 0 15
10 17 80 17 64 0 80 -3 80 -15z m450 -57 c0 -5 -8 -8 -19 -8 -10 0 -21 -9 -24
-20 -3 -11 -12 -20 -21 -20 -9 0 -16 8 -16 20 0 13 -7 20 -19 20 -19 0 -35 23
-24 34 4 3 15 6 25 6 12 0 18 7 18 21 0 18 4 17 40 -13 22 -18 40 -36 40 -40z
m259 32 c10 0 20 -3 24 -6 11 -11 -5 -34 -24 -34 -12 0 -19 -7 -19 -20 0 -11
-7 -20 -15 -20 -8 0 -15 9 -15 20 0 15 -7 20 -25 20 -31 0 -32 15 -2 31 12 7
29 22 37 33 l15 21 3 -22 c2 -14 10 -23 21 -23z m509 23 c-3 -15 -14 -18 -78
-16 -60 1 -76 4 -78 17 -3 14 9 16 78 16 72 0 81 -2 78 -17z m-1288 -98 c0
-37 -4 -65 -10 -65 -6 0 -10 28 -10 65 0 37 4 65 10 65 6 0 10 -28 10 -65z
m1224 3 c0 -38 -5 -63 -12 -66 -8 -2 -12 16 -12 62 0 47 4 66 13 66 9 0 12
-18 11 -62z m-604 -48 c0 -13 7 -20 20 -20 13 0 20 -7 20 -19 0 -12 -7 -18
-17 -17 -12 0 -19 -7 -21 -21 -2 -15 -10 -23 -22 -23 -12 0 -20 8 -22 22 -2
15 -9 22 -21 22 -10 -1 -17 5 -17 17 0 12 7 19 20 19 13 0 20 7 20 20 0 13 7
20 20 20 13 0 20 -7 20 -20z m-534 -61 c8 -16 14 -39 14 -54 l0 -25 500 0 500
0 0 26 c0 46 44 103 80 104 8 0 1 -9 -17 -20 -38 -23 -53 -48 -53 -89 l0 -31
-510 0 -510 0 0 36 c0 29 -8 44 -36 71 -32 30 -33 32 -9 21 14 -6 33 -24 41
-39z"/>
<path d="M449 1358 c-4 -56 22 -158 41 -158 4 0 13 7 21 16 12 14 61 44 74 44
3 0 5 -14 5 -30 0 -19 -5 -30 -12 -29 -7 1 -22 1 -32 0 -17 -1 -15 -5 11 -24
l31 -23 -24 -21 c-13 -12 -24 -27 -24 -34 0 -10 3 -10 11 -2 6 6 18 9 25 6 11
-4 14 -28 14 -99 0 -87 -1 -94 -20 -94 -25 0 -25 -5 0 -30 16 -16 18 -25 10
-45 -13 -33 -12 -38 0 -30 6 4 10 -8 10 -29 0 -25 4 -36 15 -36 10 0 15 10 15
30 0 17 9 39 20 50 24 24 29 25 44 4 10 -13 18 -7 56 40 25 31 47 56 50 56 10
-1 47 -68 53 -97 5 -27 2 -31 -37 -50 -40 -20 -44 -25 -54 -78 -7 -32 -9 -61
-6 -66 3 -5 -18 -9 -47 -9 -57 0 -55 -5 -33 83 8 34 -8 36 -26 3 l-13 -25 -27
21 c-39 29 -58 19 -27 -14 l25 -26 -24 -6 c-36 -10 -29 -26 12 -26 33 0 36 -2
30 -24 -5 -22 -2 -24 47 -30 29 -4 64 -13 78 -19 13 -7 31 -11 39 -10 16 4 47
61 41 78 -1 5 17 -12 41 -39 47 -54 55 -75 57 -153 1 -57 -9 -66 -37 -34 -10
11 -27 22 -39 26 -21 6 -22 5 -8 -21 7 -15 19 -30 26 -34 7 -5 2 -12 -17 -21
-15 -8 -29 -19 -31 -24 -4 -12 36 -13 54 -2 12 8 29 -10 19 -20 -3 -3 0 -15 6
-27 11 -19 13 -18 23 24 9 36 15 45 32 43 19 -2 21 5 27 75 8 90 8 115 1 202
-5 64 -5 65 12 40 10 -14 34 -42 54 -62 31 -32 43 -38 79 -38 34 0 48 6 76 34
40 40 43 67 14 151 -11 32 -20 60 -20 61 0 2 17 12 38 23 34 18 35 20 12 21
-52 1 -52 16 2 41 l52 24 -55 5 -54 5 59 31 60 31 -38 7 -38 7 45 48 c76 82
96 146 62 210 -17 34 -33 41 -90 41 -35 0 -48 -5 -64 -26 -12 -15 -21 -36 -21
-48 0 -11 -9 -34 -20 -51 -28 -42 -27 -64 1 -39 28 25 23 12 -25 -59 -21 -31
-37 -60 -34 -62 5 -6 55 34 111 87 15 15 26 32 22 38 -3 5 -2 10 4 10 5 0 11
-10 14 -22 3 -22 4 -21 11 5 11 37 -1 78 -24 84 -29 8 -25 42 6 53 36 14 42
13 69 -15 56 -55 25 -119 -104 -217 -73 -55 -101 -91 -101 -130 0 -34 31 -107
70 -163 42 -61 47 -94 20 -128 -28 -35 -77 -37 -108 -4 -11 12 -43 69 -70 127
-48 105 -49 106 -45 190 4 73 9 95 40 155 34 66 50 119 58 193 1 18 8 39 15
47 10 13 8 15 -14 15 -16 0 -25 -4 -21 -10 3 -5 0 -10 -8 -10 -8 0 -14 8 -13
17 0 12 -7 19 -21 21 -16 2 -23 -2 -23 -12 0 -9 -7 -16 -16 -16 -11 0 -14 6
-9 21 6 17 3 20 -12 17 -11 -2 -17 -11 -15 -22 2 -10 -6 -29 -18 -41 -13 -14
-19 -29 -15 -36 6 -8 -2 -10 -28 -7 -20 2 -33 0 -31 -4 3 -4 21 -8 41 -8 27 0
34 -3 29 -15 -4 -11 2 -15 20 -15 14 0 22 -4 19 -10 -3 -5 -15 -10 -26 -10
-28 0 -89 -33 -126 -67 l-31 -29 -36 18 c-20 10 -36 23 -36 28 0 5 -7 7 -15 4
-18 -7 -19 6 -3 41 9 19 9 28 0 37 -9 9 -12 9 -12 -1 0 -7 -7 -19 -15 -27 -13
-14 -15 -12 -15 15 0 16 4 32 9 35 9 6 9 13 -4 54 -7 22 -35 31 -35 11 0 -19
-69 -2 -106 26 -22 17 -34 21 -35 13z m506 -68 c-3 -5 -12 -10 -18 -10 -7 0
-6 4 3 10 19 12 23 12 15 0z m-10 -40 c3 -5 2 -10 -4 -10 -5 0 -13 5 -16 10
-3 6 -2 10 4 10 5 0 13 -4 16 -10z m-312 -130 c7 -6 33 -26 60 -46 26 -19 47
-41 47 -49 0 -7 5 -15 11 -17 5 -2 -8 -32 -31 -66 -41 -64 -60 -72 -60 -24 0
15 -8 36 -16 47 -15 19 -16 18 -12 -22 2 -24 0 -43 -4 -43 -9 0 -9 3 -14 138
-2 50 -1 92 2 92 3 0 10 -5 17 -10z m-6 -272 c-3 -8 -6 -5 -6 6 -1 11 2 17 5
13 3 -3 4 -12 1 -19z m186 -123 c-3 -9 -8 -14 -10 -11 -3 3 -2 9 2 15 9 16 15
13 8 -4z m-6 -57 c-3 -7 -5 -2 -5 12 0 14 2 19 5 13 2 -7 2 -19 0 -25z"/>
<path d="M426 424 c-8 -21 -8 -20 9 -37 23 -24 55 -10 55 24 0 25 -4 29 -29
29 -17 0 -31 -6 -35 -16z m43 -3 c16 -10 6 -31 -15 -31 -8 0 -14 9 -14 20 0
22 7 25 29 11z"/>
<path d="M1290 411 c0 -21 6 -32 20 -36 28 -9 40 2 40 36 0 26 -3 29 -30 29
-27 0 -30 -3 -30 -29z m48 -4 c2 -12 -3 -17 -17 -17 -12 0 -21 6 -21 13 0 31
32 34 38 4z"/>
<path d="M434 341 c-2 -2 -4 -13 -4 -23 0 -12 -7 -18 -22 -18 -18 0 -23 -6
-25 -30 -2 -26 1 -30 22 -30 18 0 25 -5 25 -19 0 -12 9 -20 25 -23 29 -6 35
-2 35 24 0 11 7 18 20 18 11 0 20 3 21 8 0 4 2 17 3 30 2 17 -2 22 -21 22 -17
0 -23 6 -23 23 0 17 -6 22 -26 22 -14 0 -28 -2 -30 -4z m46 -31 c0 -13 7 -20
20 -20 13 0 20 -7 20 -20 0 -13 -7 -20 -20 -20 -13 0 -20 -7 -20 -20 0 -13 -7
-20 -20 -20 -13 0 -20 7 -20 20 0 13 -7 20 -20 20 -13 0 -20 7 -20 20 0 13 7
20 20 20 13 0 20 7 20 20 0 13 7 20 20 20 13 0 20 -7 20 -20z"/>
<path d="M1295 342 c-3 -3 -5 -13 -5 -23 0 -11 -9 -19 -22 -21 -32 -4 -32 -52
0 -56 13 -2 22 -10 22 -22 0 -10 7 -20 15 -24 23 -8 45 4 45 25 0 14 7 19 25
19 21 0 25 5 25 30 0 25 -4 30 -24 30 -18 0 -26 6 -28 22 -3 20 -39 33 -53 20z
m45 -32 c0 -13 7 -20 20 -20 13 0 20 -7 20 -20 0 -13 -7 -20 -20 -20 -13 0
-20 -7 -20 -20 0 -11 -6 -20 -14 -20 -7 0 -16 9 -19 20 -3 12 -14 20 -26 20
-30 0 -28 38 2 42 14 2 21 9 21 21 -1 10 5 17 17 17 12 0 19 -7 19 -20z"/>
<path d="M570 271 c0 -16 6 -31 15 -35 26 -10 45 5 45 35 0 26 -4 29 -30 29
-26 0 -30 -3 -30 -29z m50 -6 c0 -8 -8 -15 -18 -15 -10 0 -19 7 -19 15 0 8 9
15 19 15 10 0 18 -7 18 -15z"/>
<path d="M1149 298 c-7 -19 -3 -58 6 -62 30 -11 50 1 53 32 3 30 1 32 -27 32
-17 0 -31 -1 -32 -2z m49 -31 c2 -12 -3 -17 -17 -17 -14 0 -21 6 -21 19 0 24
34 22 38 -2z"/>
<path d="M570 186 c0 -19 -5 -26 -20 -26 -16 0 -20 -7 -20 -30 0 -23 4 -30 20
-30 13 0 20 -7 20 -20 0 -16 7 -20 30 -20 27 0 35 8 31 33 0 4 10 7 24 7 21 0
25 5 25 30 0 23 -4 30 -20 30 -11 0 -21 5 -21 10 -1 6 -2 16 -3 23 0 6 -16 13
-33 15 -30 3 -33 1 -33 -22z m50 -16 c0 -15 7 -20 25 -20 29 0 25 -26 -6 -35
-10 -4 -19 -15 -19 -26 0 -14 -5 -19 -17 -17 -10 2 -17 11 -17 21 1 9 -2 18
-7 18 -5 1 -15 2 -21 3 -22 2 -22 36 0 36 11 0 22 9 25 20 3 11 12 20 21 20 9
0 16 -8 16 -20z"/>
<path d="M1144 185 c-4 -16 -13 -25 -25 -25 -14 0 -19 -7 -19 -30 0 -25 4 -30
25 -30 18 0 25 -5 25 -20 0 -16 7 -20 30 -20 23 0 30 4 30 20 0 13 7 20 20 20
16 0 20 7 20 30 0 23 -4 30 -20 30 -15 0 -20 7 -20 25 0 21 -5 25 -30 25 -23
0 -31 -5 -36 -25z m52 -12 c-1 -12 7 -19 22 -21 16 -2 22 -9 20 -20 -2 -10
-11 -16 -21 -14 -15 3 -22 -14 -18 -40 0 -5 -8 -8 -19 -8 -14 0 -20 7 -20 21
0 12 -8 23 -20 26 -11 3 -20 12 -20 19 0 8 9 14 20 14 13 0 20 7 20 20 0 13 7
20 19 20 12 0 18 -7 17 -17z"/>
<path d="M430 130 c0 -27 3 -30 30 -30 27 0 30 3 30 30 0 27 -3 30 -30 30 -27
0 -30 -3 -30 -30z m48 -2 c-7 -19 -38 -22 -38 -4 0 10 9 16 21 16 12 0 19 -5
17 -12z"/>
<path d="M710 130 c0 -28 3 -30 35 -30 32 0 35 2 35 30 0 28 -3 30 -35 30 -32
0 -35 -2 -35 -30z m50 -6 c0 -8 -7 -14 -15 -14 -8 0 -15 9 -15 20 0 13 5 18
15 14 8 -4 15 -12 15 -20z"/>
<path d="M1000 130 c0 -27 3 -30 29 -30 34 0 45 12 36 40 -4 14 -15 20 -36 20
-26 0 -29 -3 -29 -30z m50 0 c0 -13 -7 -20 -20 -20 -22 0 -23 1 -14 24 9 23
34 20 34 -4z"/>
<path d="M1290 130 c0 -27 3 -30 30 -30 27 0 30 3 30 30 0 27 -3 30 -30 30
-27 0 -30 -3 -30 -30z m50 -6 c0 -8 -9 -14 -20 -14 -19 0 -27 19 -14 33 10 9
34 -4 34 -19z"/>
<path d="M955 1745 c-39 -12 -38 -13 45 -11 l85 1 3 -41 c2 -31 8 -43 21 -47
15 -4 20 3 24 30 3 19 2 45 -3 59 -9 22 -15 24 -72 23 -35 0 -81 -6 -103 -14z"/>
<path d="M466 1737 c-25 -18 -19 -90 7 -95 16 -3 18 1 13 25 -9 45 5 55 83 61
39 2 71 9 71 13 0 14 -154 11 -174 -4z"/>
<path d="M1140 1740 c0 -5 24 -10 54 -10 30 0 67 -5 81 -10 24 -9 27 -15 23
-45 -3 -29 -1 -35 14 -35 10 0 18 8 19 18 0 9 2 27 5 39 6 37 -30 53 -118 53
-45 0 -78 -4 -78 -10z"/>
<path d="M753 1692 c-29 -2 -53 -8 -53 -14 0 -6 9 -8 23 -4 12 3 48 6 80 6 31
0 57 4 57 9 0 8 -11 9 -107 3z"/>
<path d="M920 1690 c0 -4 35 -10 78 -13 72 -4 91 -3 81 7 -7 7 -159 13 -159 6z"/>
<path d="M610 1673 c-41 -14 -100 -46 -100 -53 0 -5 24 2 53 15 28 14 58 25
65 25 6 0 12 5 12 10 0 11 -6 11 -30 3z"/>
<path d="M1140 1671 c0 -6 7 -11 16 -11 9 0 38 -11 65 -25 27 -13 49 -20 49
-14 0 6 -19 18 -42 28 -64 28 -88 34 -88 22z"/>
<path d="M3125 1417 c-164 -43 -228 -138 -241 -361 -15 -234 44 -377 178 -436
91 -40 321 -43 427 -5 135 47 194 169 194 400 0 222 -60 343 -192 391 -61 22
-296 29 -366 11z m262 -194 c54 -25 68 -69 68 -213 0 -147 -16 -193 -75 -222
-46 -24 -144 -24 -190 0 -63 31 -75 68 -75 222 0 146 11 186 58 212 50 27 156
28 214 1z"/>
<path d="M2130 1011 l0 -411 110 0 110 0 0 104 0 103 143 5 c157 6 200 17 254
70 80 78 95 320 26 437 -19 33 -38 49 -82 69 -55 26 -60 27 -308 30 l-253 4 0
-411z m435 204 c19 -18 25 -35 26 -72 2 -90 -10 -136 -39 -149 -10 -3 -59 -8
-109 -9 l-93 -2 0 128 0 129 95 0 c88 0 98 -2 120 -25z"/>
<path d="M3785 1407 c-3 -6 -4 -190 -3 -407 l3 -395 293 -3 292 -2 0 90 0 90
-180 0 c-153 0 -180 2 -181 15 -1 8 -3 24 -4 35 -1 11 -3 148 -4 305 l-1 285
-105 0 c-75 0 -107 -4 -110 -13z"/>
<path d="M4460 1010 l0 -410 110 0 110 0 0 410 0 410 -110 0 -110 0 0 -410z"/>
<path d="M4770 1325 l0 -95 130 0 130 0 0 -315 0 -315 110 0 110 0 0 315 0
315 130 0 131 0 -3 93 -3 92 -367 3 -368 2 0 -95z"/>
<path d="M5600 1010 l0 -410 110 0 110 0 0 410 0 410 -110 0 -110 0 0 -410z"/>
<path d="M5950 1010 l0 -410 293 2 292 3 0 85 0 85 -183 3 -183 2 3 67 3 66
137 0 c75 0 140 2 145 6 11 8 11 174 0 182 -5 4 -70 6 -145 6 l-137 0 -3 61
-3 62 186 0 186 0 -3 93 -3 92 -292 3 -293 2 0 -410z"/>
<path d="M6597 1413 c-4 -3 -7 -46 -7 -95 l0 -88 129 0 c123 0 129 -1 134 -21
3 -12 5 -154 4 -315 l-2 -294 108 0 107 0 2 298 c0 163 1 304 2 312 1 12 24
15 129 18 l127 3 0 94 0 95 -363 0 c-200 0 -367 -3 -370 -7z"/>
</g>
</svg>
